<svg width="20" height="20" viewBox="0 0 20 20" fill="none" xmlns="http://www.w3.org/2000/svg">
<path fill-rule="evenodd" clip-rule="evenodd" d="M14.512 5H16.667C17.5862 5 18.3337 5.7475 18.3337 6.66667V15.8333C18.3337 16.7525 17.5862 17.5 16.667 17.5H3.33366C2.41449 17.5 1.66699 16.7525 1.66699 15.8333V6.66667C1.66699 5.7475 2.41449 5 3.33366 5H5.48866L7.74449 2.74417C7.82175 2.66663 7.91357 2.60514 8.01469 2.56324C8.1158 2.52133 8.22421 2.49984 8.33366 2.5H11.667C11.7764 2.49984 11.8848 2.52133 11.986 2.56324C12.0871 2.60514 12.1789 2.66663 12.2562 2.74417L14.512 5ZM3.33366 6.66667V15.8333H16.6687L16.667 6.66667H14.167C14.0575 6.66683 13.9491 6.64534 13.848 6.60343C13.7469 6.56153 13.6551 6.50004 13.5778 6.4225L11.322 4.16667H8.67866L6.42283 6.4225C6.26699 6.57917 6.05533 6.66667 5.83366 6.66667H3.33366ZM6.66699 10.8333C6.66699 9.02667 8.19366 7.5 10.0003 7.5C11.807 7.5 13.3337 9.02667 13.3337 10.8333C13.3337 12.64 11.807 14.1667 10.0003 14.1667C8.19366 14.1667 6.66699 12.64 6.66699 10.8333ZM8.33366 10.8333C8.33366 11.7208 9.11283 12.5 10.0003 12.5C10.8878 12.5 11.667 11.7208 11.667 10.8333C11.667 9.94583 10.8878 9.16667 10.0003 9.16667C9.11283 9.16667 8.33366 9.94583 8.33366 10.8333Z" fill="#B2B0B8"/>
</svg>
