<svg width="24" height="24" viewBox="0 0 24 24" fill="none" xmlns="http://www.w3.org/2000/svg">
<path fill-rule="evenodd" clip-rule="evenodd" d="M17.29 3.88L20.12 6.71C20.6828 7.27207 20.9993 8.03462 21 8.83V18C21 18.7956 20.6839 19.5587 20.1213 20.1213C19.5587 20.6839 18.7956 21 18 21H6C5.20435 21 4.44129 20.6839 3.87868 20.1213C3.31607 19.5587 3 18.7956 3 18V8.83C3.0007 8.03462 3.31723 7.27207 3.88 6.71L6.71 3.88C7.27207 3.31723 8.03462 3.0007 8.83 3H15.17C15.9654 3.0007 16.7279 3.31723 17.29 3.88ZM8.83 5C8.56523 5.00368 8.31163 5.10727 8.12 5.29L6.41 7H17.59L15.88 5.29C15.6884 5.10727 15.4348 5.00368 15.17 5H8.83ZM5.29289 18.7071C5.48043 18.8946 5.73478 19 6 19H18C18.2652 19 18.5196 18.8946 18.7071 18.7071C18.8946 18.5196 19 18.2652 19 18V9H5V18C5 18.2652 5.10536 18.5196 5.29289 18.7071ZM14.2929 11.2929C14.4804 11.1054 14.7348 11 15 11C15.2652 11 15.5196 11.1054 15.7071 11.2929C15.8946 11.4804 16 11.7348 16 12C16 13.0609 15.5786 14.0783 14.8284 14.8284C14.0783 15.5786 13.0609 16 12 16C10.9391 16 9.92172 15.5786 9.17157 14.8284C8.42143 14.0783 8 13.0609 8 12C8 11.7348 8.10536 11.4804 8.29289 11.2929C8.48043 11.1054 8.73478 11 9 11C9.26522 11 9.51957 11.1054 9.70711 11.2929C9.89464 11.4804 10 11.7348 10 12C10 12.5304 10.2107 13.0391 10.5858 13.4142C10.9609 13.7893 11.4696 14 12 14C12.5304 14 13.0391 13.7893 13.4142 13.4142C13.7893 13.0391 14 12.5304 14 12C14 11.7348 14.1054 11.4804 14.2929 11.2929Z" fill="white"/>
</svg>
