<svg width="20" height="20" viewBox="0 0 20 20" fill="none" xmlns="http://www.w3.org/2000/svg">
<path fill-rule="evenodd" clip-rule="evenodd" d="M6.93182 3.86364C6.66057 3.86364 6.40044 3.97139 6.20864 4.16319C6.01684 4.35498 5.90909 4.61512 5.90909 4.88636C5.90909 5.15761 6.01684 5.41774 6.20864 5.60954C6.40044 5.80134 6.66057 5.90909 6.93182 5.90909H9.08229C8.99905 5.69133 8.89369 5.45187 8.76338 5.21494C8.33453 4.43523 7.74584 3.86364 6.93182 3.86364ZM4.54545 4.88636C4.54545 5.24353 4.62552 5.59244 4.77572 5.90909H3.18182C2.80526 5.90909 2.5 6.21435 2.5 6.59091V10C2.5 10.3766 2.80526 10.6818 3.18182 10.6818H3.86364V16.8182C3.86364 17.1947 4.1689 17.5 4.54545 17.5H10H15.4545C15.8311 17.5 16.1364 17.1947 16.1364 16.8182V10.6818H16.8182C17.1947 10.6818 17.5 10.3766 17.5 10V6.59091C17.5 6.21435 17.1947 5.90909 16.8182 5.90909H15.2243C15.3745 5.59244 15.4545 5.24353 15.4545 4.88636C15.4545 4.25346 15.2031 3.64648 14.7556 3.19895C14.3081 2.75142 13.7011 2.5 13.0682 2.5C11.4958 2.5 10.5504 3.63295 10.0418 4.55778C10.0276 4.58356 10.0137 4.60933 10 4.63506C9.98632 4.60933 9.9724 4.58356 9.95822 4.55778C9.44956 3.63295 8.50416 2.5 6.93182 2.5C6.29892 2.5 5.69193 2.75142 5.2444 3.19895C4.79687 3.64648 4.54545 4.25346 4.54545 4.88636ZM10.9177 5.90909H13.0682C13.3394 5.90909 13.5996 5.80134 13.7914 5.60954C13.9832 5.41774 14.0909 5.15761 14.0909 4.88636C14.0909 4.61512 13.9832 4.35498 13.7914 4.16319C13.5996 3.97139 13.3394 3.86364 13.0682 3.86364C12.2542 3.86364 11.6655 4.43523 11.2366 5.21494C11.1063 5.45187 11.0009 5.69133 10.9177 5.90909ZM10.6818 7.27273V9.31818H15.4545H16.1364V7.27273H13.0682H10.6818ZM6.93182 7.27273H9.31818V9.31818H4.54545H3.86364V7.27273H6.93182ZM10.6818 16.1364H14.7727V10.6818H10.6818V16.1364ZM9.31818 10.6818V16.1364H5.22727V10.6818H9.31818Z" fill="#291E47"/>
</svg>
