<svg width="24" height="24" viewBox="0 0 24 24" fill="none" xmlns="http://www.w3.org/2000/svg">
<path fill-rule="evenodd" clip-rule="evenodd" d="M16.3911 4.19742C15.7012 3.99758 14.9764 3.94873 14.2659 4.05418C13.5554 4.15964 12.876 4.41692 12.2739 4.80853C11.6718 5.20013 11.1611 5.71687 10.7767 6.32355C10.3922 6.93024 10.1429 7.61264 10.0459 8.3243C9.94881 9.03597 10.0062 9.76019 10.2142 10.4477C10.3209 10.8006 10.2248 11.1836 9.96411 11.4443L4.00011 17.4083L4 19.9942H6V18.9942C6 18.4419 6.44772 17.9942 7 17.9942H8V16.9942C8 16.4419 8.44772 15.9942 9 15.9942H10.5858L12.5499 14.0301C12.8109 13.7691 13.1944 13.6731 13.5475 13.7803C14.2948 14.0072 15.0848 14.0559 15.8543 13.9224C16.6238 13.789 17.3514 13.4772 17.9786 13.0119C18.6059 12.5467 19.1155 11.9409 19.4665 11.2433C19.8174 10.5459 20.0001 9.77593 20 8.99518M10 17.9942V18.9942C10 19.5465 9.55228 19.9942 9 19.9942H8V20.9942C8 21.5465 7.55228 21.9942 7 21.9942H4C3.46957 21.9942 2.96086 21.7835 2.58579 21.4084C2.21071 21.0334 2 20.5246 2 19.9942V17.4082C2.00011 16.8779 2.21086 16.3691 2.58589 15.9941C2.58593 15.9941 2.58586 15.9941 2.58589 15.9941L8.14803 10.432C7.9849 9.65139 7.95604 8.84713 8.06422 8.05402C8.20011 7.05769 8.54906 6.10233 9.08732 5.25297C9.62559 4.40361 10.3405 3.68019 11.1835 3.13194C12.0264 2.58369 12.9776 2.22349 13.9723 2.07586C14.9669 1.92822 15.9817 1.99662 16.9476 2.27638C17.9134 2.55615 18.8077 3.04073 19.5694 3.69713C20.3312 4.35353 20.9426 5.16634 21.362 6.08025C21.7814 6.99415 21.999 7.9877 22 8.99325C22.0003 10.0866 21.7445 11.1655 21.2531 12.1422C20.7617 13.1189 20.0483 13.9669 19.1701 14.6183C18.2919 15.2696 17.2734 15.7062 16.1961 15.893C15.3211 16.0448 14.4272 16.0283 13.5618 15.8466L11.7071 17.7013C11.5196 17.8889 11.2652 17.9942 11 17.9942H10ZM20 8.99518C19.9992 8.27716 19.8438 7.56705 19.5443 6.91446C19.2447 6.26167 18.808 5.68109 18.2639 5.21223C17.7198 4.74338 17.081 4.39725 16.3911 4.19742M14.0761 6.61153C14.2309 6.23786 14.5955 5.99422 15 5.99422C15.7956 5.99422 16.5587 6.31029 17.1213 6.8729C17.6839 7.4355 18 8.19857 18 8.99422C18 9.39868 17.7564 9.76332 17.3827 9.9181C17.009 10.0729 16.5789 9.98732 16.2929 9.70132L14.2929 7.70132C14.0069 7.41533 13.9213 6.98521 14.0761 6.61153Z" fill="#7547EF"/>
</svg>
