<svg width="20" height="20" viewBox="0 0 20 20" fill="none" xmlns="http://www.w3.org/2000/svg">
<path d="M3.33301 10.0001C3.33301 10.2211 3.42081 10.4331 3.57709 10.5893C3.73337 10.7456 3.94533 10.8334 4.16634 10.8334H10.4913L8.57467 12.7417C8.49657 12.8192 8.43457 12.9114 8.39226 13.0129C8.34996 13.1145 8.32818 13.2234 8.32818 13.3334C8.32818 13.4434 8.34996 13.5523 8.39226 13.6539C8.43457 13.7554 8.49657 13.8476 8.57467 13.9251C8.65214 14.0032 8.74431 14.0652 8.84586 14.1075C8.94741 14.1498 9.05633 14.1716 9.16634 14.1716C9.27635 14.1716 9.38527 14.1498 9.48682 14.1075C9.58837 14.0652 9.68054 14.0032 9.75801 13.9251L13.0913 10.5917C13.1672 10.5125 13.2267 10.419 13.2663 10.3167C13.3497 10.1139 13.3497 9.8863 13.2663 9.68342C13.2267 9.58112 13.1672 9.48767 13.0913 9.40841L9.75801 6.07508C9.68031 5.99738 9.58807 5.93575 9.48655 5.8937C9.38503 5.85165 9.27622 5.83001 9.16634 5.83001C9.05646 5.83001 8.94765 5.85165 8.84613 5.8937C8.74461 5.93575 8.65237 5.99738 8.57467 6.07508C8.49697 6.15278 8.43534 6.24502 8.39329 6.34654C8.35124 6.44806 8.3296 6.55687 8.3296 6.66675C8.3296 6.77663 8.35124 6.88544 8.39329 6.98696C8.43534 7.08847 8.49697 7.18072 8.57467 7.25842L10.4913 9.16675H4.16634C3.94533 9.16675 3.73337 9.25455 3.57709 9.41083C3.42081 9.56711 3.33301 9.77907 3.33301 10.0001ZM14.1663 1.66675H5.83301C5.16997 1.66675 4.53408 1.93014 4.06524 2.39898C3.5964 2.86782 3.33301 3.50371 3.33301 4.16675V6.66675C3.33301 6.88776 3.42081 7.09972 3.57709 7.256C3.73337 7.41228 3.94533 7.50008 4.16634 7.50008C4.38735 7.50008 4.59932 7.41228 4.7556 7.256C4.91188 7.09972 4.99967 6.88776 4.99967 6.66675V4.16675C4.99967 3.94573 5.08747 3.73377 5.24375 3.57749C5.40003 3.42121 5.61199 3.33341 5.83301 3.33341H14.1663C14.3874 3.33341 14.5993 3.42121 14.7556 3.57749C14.9119 3.73377 14.9997 3.94573 14.9997 4.16675V15.8334C14.9997 16.0544 14.9119 16.2664 14.7556 16.4227C14.5993 16.579 14.3874 16.6667 14.1663 16.6667H5.83301C5.61199 16.6667 5.40003 16.579 5.24375 16.4227C5.08747 16.2664 4.99967 16.0544 4.99967 15.8334V13.3334C4.99967 13.1124 4.91188 12.9004 4.7556 12.7442C4.59932 12.5879 4.38735 12.5001 4.16634 12.5001C3.94533 12.5001 3.73337 12.5879 3.57709 12.7442C3.42081 12.9004 3.33301 13.1124 3.33301 13.3334V15.8334C3.33301 16.4965 3.5964 17.1323 4.06524 17.6012C4.53408 18.07 5.16997 18.3334 5.83301 18.3334H14.1663C14.8294 18.3334 15.4653 18.07 15.9341 17.6012C16.4029 17.1323 16.6663 16.4965 16.6663 15.8334V4.16675C16.6663 3.50371 16.4029 2.86782 15.9341 2.39898C15.4653 1.93014 14.8294 1.66675 14.1663 1.66675Z" />
</svg>
