<svg width="32" height="32" viewBox="0 0 32 32" fill="none" xmlns="http://www.w3.org/2000/svg">
<path d="M15.9997 2.66675L25.7383 4.88008C26.0015 4.93992 26.2369 5.08974 26.4056 5.30481C26.5743 5.51989 26.6663 5.78737 26.6663 6.06311V18.1686C26.6663 19.3658 26.3772 20.5445 25.8247 21.6001C25.2723 22.6557 24.4736 23.5554 23.4995 24.2195L15.9997 29.3334L8.49982 24.2195C7.52592 23.5555 6.72733 22.656 6.1749 21.6006C5.62247 20.5453 5.33329 19.3668 5.33301 18.1698V6.06311C5.33305 5.78737 5.42502 5.51989 5.59374 5.30481C5.76245 5.08974 5.99782 4.93992 6.26101 4.88008L15.9997 2.66675ZM15.9997 5.15038L7.70338 7.03523V18.1686C7.70339 18.9667 7.89606 19.7525 8.26428 20.4562C8.6325 21.1599 9.16489 21.7597 9.81419 22.2025L15.9997 26.4207L22.1852 22.2025C22.8343 21.7599 23.3666 21.1602 23.7348 20.4567C24.103 19.7533 24.2958 18.9677 24.296 18.1698V7.03523L15.9997 5.1516V5.15038ZM15.9997 9.93948C16.5216 9.93923 17.0289 10.1151 17.4431 10.4399C17.8572 10.7647 18.155 11.2202 18.2902 11.7357C18.4254 12.2512 18.3905 12.7979 18.1908 13.2911C17.9912 13.7842 17.638 14.1962 17.186 14.4631L17.1849 19.6364H14.8145V14.4631C14.3626 14.1963 14.0095 13.7844 13.8098 13.2914C13.6102 12.7984 13.5751 12.2517 13.7102 11.7363C13.8452 11.2208 14.1428 10.7653 14.5567 10.4405C14.9707 10.1156 15.4779 9.9395 15.9997 9.93948Z" fill="#291E47"/>
</svg>
